<mxfile host="app.diagrams.net" agent="Mozilla/5.0 (Windows NT 10.0; Win64; x64) AppleWebKit/537.36 (KHTML, like Gecko) Chrome/135.0.0.0 Safari/537.36" version="26.2.14">
  <diagram name="Página-1" id="cGtZ0ZqcJ2M5ogD-BFSz">
    <mxGraphModel dx="1699" dy="1642" grid="1" gridSize="10" guides="1" tooltips="1" connect="1" arrows="1" fold="1" page="1" pageScale="1" pageWidth="827" pageHeight="1169" math="0" shadow="0">
      <root>
        <mxCell id="0" />
        <mxCell id="1" parent="0" />
        <mxCell id="OujCXUVkTaEfRvT8h6zp-46" value="" style="edgeStyle=orthogonalEdgeStyle;rounded=0;orthogonalLoop=1;jettySize=auto;html=1;" edge="1" parent="1" source="OujCXUVkTaEfRvT8h6zp-2" target="OujCXUVkTaEfRvT8h6zp-42">
          <mxGeometry relative="1" as="geometry" />
        </mxCell>
        <mxCell id="OujCXUVkTaEfRvT8h6zp-2" value="&lt;font style=&quot;vertical-align: inherit;&quot;&gt;&lt;font style=&quot;vertical-align: inherit;&quot;&gt;Cliente&lt;/font&gt;&lt;/font&gt;" style="whiteSpace=wrap;html=1;align=center;" vertex="1" parent="1">
          <mxGeometry x="-340" y="-370" width="100" height="40" as="geometry" />
        </mxCell>
        <mxCell id="OujCXUVkTaEfRvT8h6zp-3" value="&lt;font style=&quot;vertical-align: inherit;&quot;&gt;&lt;font style=&quot;vertical-align: inherit;&quot;&gt;Póliza&lt;/font&gt;&lt;/font&gt;" style="shape=ext;margin=3;double=1;whiteSpace=wrap;html=1;align=center;" vertex="1" parent="1">
          <mxGeometry x="364" y="100" width="100" height="40" as="geometry" />
        </mxCell>
        <mxCell id="OujCXUVkTaEfRvT8h6zp-4" value="&lt;font style=&quot;vertical-align: inherit;&quot;&gt;&lt;font style=&quot;vertical-align: inherit;&quot;&gt;Dental (P3)&lt;/font&gt;&lt;/font&gt;" style="shape=ext;margin=3;double=1;whiteSpace=wrap;html=1;align=center;" vertex="1" parent="1">
          <mxGeometry x="430" y="-180" width="100" height="40" as="geometry" />
        </mxCell>
        <mxCell id="OujCXUVkTaEfRvT8h6zp-74" value="" style="edgeStyle=orthogonalEdgeStyle;rounded=0;orthogonalLoop=1;jettySize=auto;html=1;" edge="1" parent="1" source="OujCXUVkTaEfRvT8h6zp-5" target="OujCXUVkTaEfRvT8h6zp-65">
          <mxGeometry relative="1" as="geometry" />
        </mxCell>
        <mxCell id="OujCXUVkTaEfRvT8h6zp-77" style="edgeStyle=orthogonalEdgeStyle;rounded=0;orthogonalLoop=1;jettySize=auto;html=1;entryX=0;entryY=0.5;entryDx=0;entryDy=0;" edge="1" parent="1" source="OujCXUVkTaEfRvT8h6zp-5" target="OujCXUVkTaEfRvT8h6zp-70">
          <mxGeometry relative="1" as="geometry" />
        </mxCell>
        <mxCell id="OujCXUVkTaEfRvT8h6zp-5" value="Vida (P1)" style="shape=ext;margin=3;double=1;whiteSpace=wrap;html=1;align=center;" vertex="1" parent="1">
          <mxGeometry x="890" y="-40" width="100" height="40" as="geometry" />
        </mxCell>
        <mxCell id="OujCXUVkTaEfRvT8h6zp-6" value="Catastrófico (P4)" style="shape=ext;margin=3;double=1;whiteSpace=wrap;html=1;align=center;" vertex="1" parent="1">
          <mxGeometry x="310" y="-180" width="100" height="40" as="geometry" />
        </mxCell>
        <mxCell id="OujCXUVkTaEfRvT8h6zp-78" value="" style="edgeStyle=orthogonalEdgeStyle;rounded=0;orthogonalLoop=1;jettySize=auto;html=1;" edge="1" parent="1" source="OujCXUVkTaEfRvT8h6zp-7" target="OujCXUVkTaEfRvT8h6zp-67">
          <mxGeometry relative="1" as="geometry" />
        </mxCell>
        <mxCell id="OujCXUVkTaEfRvT8h6zp-79" style="edgeStyle=orthogonalEdgeStyle;rounded=0;orthogonalLoop=1;jettySize=auto;html=1;entryX=0;entryY=0.5;entryDx=0;entryDy=0;" edge="1" parent="1" source="OujCXUVkTaEfRvT8h6zp-7" target="OujCXUVkTaEfRvT8h6zp-68">
          <mxGeometry relative="1" as="geometry" />
        </mxCell>
        <mxCell id="OujCXUVkTaEfRvT8h6zp-7" value="&lt;font style=&quot;vertical-align: inherit;&quot;&gt;&lt;font style=&quot;vertical-align: inherit;&quot;&gt;Salud (P2)&lt;/font&gt;&lt;/font&gt;" style="shape=ext;margin=3;double=1;whiteSpace=wrap;html=1;align=center;" vertex="1" parent="1">
          <mxGeometry x="540" y="-180" width="100" height="40" as="geometry" />
        </mxCell>
        <mxCell id="OujCXUVkTaEfRvT8h6zp-91" value="" style="edgeStyle=orthogonalEdgeStyle;rounded=0;orthogonalLoop=1;jettySize=auto;html=1;" edge="1" parent="1" source="OujCXUVkTaEfRvT8h6zp-12" target="OujCXUVkTaEfRvT8h6zp-66">
          <mxGeometry relative="1" as="geometry" />
        </mxCell>
        <mxCell id="OujCXUVkTaEfRvT8h6zp-12" value="ACC P3 Personales" style="shape=ext;margin=3;double=1;whiteSpace=wrap;html=1;align=center;" vertex="1" parent="1">
          <mxGeometry x="540" y="100" width="100" height="40" as="geometry" />
        </mxCell>
        <mxCell id="OujCXUVkTaEfRvT8h6zp-15" value="DPS" style="shape=ext;margin=3;double=1;whiteSpace=wrap;html=1;align=center;" vertex="1" parent="1">
          <mxGeometry x="890" y="-180" width="100" height="40" as="geometry" />
        </mxCell>
        <mxCell id="OujCXUVkTaEfRvT8h6zp-16" value="Evaluación" style="shape=ext;margin=3;double=1;whiteSpace=wrap;html=1;align=center;" vertex="1" parent="1">
          <mxGeometry x="1000" y="-150" width="100" height="40" as="geometry" />
        </mxCell>
        <mxCell id="OujCXUVkTaEfRvT8h6zp-17" value="Plan provisorio evaluación" style="shape=ext;margin=3;double=1;whiteSpace=wrap;html=1;align=center;" vertex="1" parent="1">
          <mxGeometry x="1000" y="-210" width="100" height="40" as="geometry" />
        </mxCell>
        <mxCell id="OujCXUVkTaEfRvT8h6zp-18" value="Plan coberturas tomadas" style="shape=ext;margin=3;double=1;whiteSpace=wrap;html=1;align=center;" vertex="1" parent="1">
          <mxGeometry x="1120" y="-210" width="100" height="40" as="geometry" />
        </mxCell>
        <mxCell id="OujCXUVkTaEfRvT8h6zp-19" value="Renovación" style="shape=ext;margin=3;double=1;whiteSpace=wrap;html=1;align=center;" vertex="1" parent="1">
          <mxGeometry x="370" y="40" width="100" height="40" as="geometry" />
        </mxCell>
        <mxCell id="OujCXUVkTaEfRvT8h6zp-23" value="Iguales condiciones" style="shape=ext;margin=3;double=1;whiteSpace=wrap;html=1;align=center;" vertex="1" parent="1">
          <mxGeometry x="320" y="360" width="100" height="40" as="geometry" />
        </mxCell>
        <mxCell id="OujCXUVkTaEfRvT8h6zp-24" value="Con Ajustes" style="shape=ext;margin=3;double=1;whiteSpace=wrap;html=1;align=center;" vertex="1" parent="1">
          <mxGeometry x="20" y="410" width="100" height="40" as="geometry" />
        </mxCell>
        <mxCell id="OujCXUVkTaEfRvT8h6zp-25" value="Coberturas/&lt;div&gt;Condiciones&lt;/div&gt;" style="shape=ext;margin=3;double=1;whiteSpace=wrap;html=1;align=center;" vertex="1" parent="1">
          <mxGeometry x="20" y="600" width="100" height="40" as="geometry" />
        </mxCell>
        <mxCell id="OujCXUVkTaEfRvT8h6zp-26" value="Planes de Beneficios" style="shape=ext;margin=3;double=1;whiteSpace=wrap;html=1;align=center;" vertex="1" parent="1">
          <mxGeometry x="20" y="540" width="100" height="40" as="geometry" />
        </mxCell>
        <mxCell id="OujCXUVkTaEfRvT8h6zp-27" value="Tarifas" style="shape=ext;margin=3;double=1;whiteSpace=wrap;html=1;align=center;" vertex="1" parent="1">
          <mxGeometry x="20" y="470" width="100" height="40" as="geometry" />
        </mxCell>
        <mxCell id="OujCXUVkTaEfRvT8h6zp-28" value="Formaliza nuevo período&amp;nbsp;" style="shape=ext;margin=3;double=1;whiteSpace=wrap;html=1;align=center;" vertex="1" parent="1">
          <mxGeometry x="620" y="600" width="100" height="40" as="geometry" />
        </mxCell>
        <mxCell id="OujCXUVkTaEfRvT8h6zp-29" value="Configura nuevo período" style="shape=ext;margin=3;double=1;whiteSpace=wrap;html=1;align=center;" vertex="1" parent="1">
          <mxGeometry x="620" y="540" width="100" height="40" as="geometry" />
        </mxCell>
        <mxCell id="OujCXUVkTaEfRvT8h6zp-30" value="Emisión póliza" style="shape=ext;margin=3;double=1;whiteSpace=wrap;html=1;align=center;" vertex="1" parent="1">
          <mxGeometry x="620" y="660" width="100" height="40" as="geometry" />
        </mxCell>
        <mxCell id="OujCXUVkTaEfRvT8h6zp-31" value="Devuelve área técnica/comercial" style="shape=ext;margin=3;double=1;whiteSpace=wrap;html=1;align=center;" vertex="1" parent="1">
          <mxGeometry x="290" y="440" width="100" height="40" as="geometry" />
        </mxCell>
        <mxCell id="OujCXUVkTaEfRvT8h6zp-32" value="Despacha PDF Corredor" style="shape=ext;margin=3;double=1;whiteSpace=wrap;html=1;align=center;" vertex="1" parent="1">
          <mxGeometry x="620" y="730" width="100" height="40" as="geometry" />
        </mxCell>
        <mxCell id="OujCXUVkTaEfRvT8h6zp-81" value="" style="edgeStyle=orthogonalEdgeStyle;rounded=0;orthogonalLoop=1;jettySize=auto;html=1;" edge="1" parent="1" source="OujCXUVkTaEfRvT8h6zp-33" target="OujCXUVkTaEfRvT8h6zp-60">
          <mxGeometry relative="1" as="geometry" />
        </mxCell>
        <mxCell id="OujCXUVkTaEfRvT8h6zp-33" value="Formulario Cierre 1" style="shape=ext;margin=3;double=1;whiteSpace=wrap;html=1;align=center;" vertex="1" parent="1">
          <mxGeometry x="-10" y="-40" width="100" height="40" as="geometry" />
        </mxCell>
        <mxCell id="OujCXUVkTaEfRvT8h6zp-34" value="Evaluación antecedentes" style="shape=rhombus;perimeter=rhombusPerimeter;whiteSpace=wrap;html=1;align=center;" vertex="1" parent="1">
          <mxGeometry x="120" y="250" width="120" height="60" as="geometry" />
        </mxCell>
        <mxCell id="OujCXUVkTaEfRvT8h6zp-35" value="No cumple" style="shape=rhombus;perimeter=rhombusPerimeter;whiteSpace=wrap;html=1;align=center;" vertex="1" parent="1">
          <mxGeometry x="150" y="320" width="120" height="60" as="geometry" />
        </mxCell>
        <mxCell id="OujCXUVkTaEfRvT8h6zp-57" value="" style="edgeStyle=orthogonalEdgeStyle;rounded=0;orthogonalLoop=1;jettySize=auto;html=1;" edge="1" parent="1" source="OujCXUVkTaEfRvT8h6zp-37" target="OujCXUVkTaEfRvT8h6zp-44">
          <mxGeometry relative="1" as="geometry" />
        </mxCell>
        <mxCell id="OujCXUVkTaEfRvT8h6zp-37" value="Área Comercial" style="shape=ext;margin=3;double=1;whiteSpace=wrap;html=1;align=center;" vertex="1" parent="1">
          <mxGeometry x="-190" y="-200" width="100" height="40" as="geometry" />
        </mxCell>
        <mxCell id="OujCXUVkTaEfRvT8h6zp-59" value="" style="edgeStyle=orthogonalEdgeStyle;rounded=0;orthogonalLoop=1;jettySize=auto;html=1;" edge="1" parent="1" source="OujCXUVkTaEfRvT8h6zp-38" target="OujCXUVkTaEfRvT8h6zp-33">
          <mxGeometry relative="1" as="geometry" />
        </mxCell>
        <mxCell id="OujCXUVkTaEfRvT8h6zp-38" value="Área técnica" style="shape=ext;margin=3;double=1;whiteSpace=wrap;html=1;align=center;" vertex="1" parent="1">
          <mxGeometry x="-190" y="-40" width="100" height="40" as="geometry" />
        </mxCell>
        <mxCell id="OujCXUVkTaEfRvT8h6zp-54" value="" style="edgeStyle=orthogonalEdgeStyle;rounded=0;orthogonalLoop=1;jettySize=auto;html=1;" edge="1" parent="1" source="OujCXUVkTaEfRvT8h6zp-39" target="OujCXUVkTaEfRvT8h6zp-37">
          <mxGeometry relative="1" as="geometry">
            <Array as="points">
              <mxPoint x="-130" y="-230" />
              <mxPoint x="-130" y="-230" />
            </Array>
          </mxGeometry>
        </mxCell>
        <mxCell id="OujCXUVkTaEfRvT8h6zp-39" value="Directo" style="shape=ext;margin=3;double=1;whiteSpace=wrap;html=1;align=center;" vertex="1" parent="1">
          <mxGeometry x="-190" y="-280" width="100" height="40" as="geometry" />
        </mxCell>
        <mxCell id="OujCXUVkTaEfRvT8h6zp-56" style="edgeStyle=orthogonalEdgeStyle;rounded=0;orthogonalLoop=1;jettySize=auto;html=1;entryX=1;entryY=0.5;entryDx=0;entryDy=0;" edge="1" parent="1" source="OujCXUVkTaEfRvT8h6zp-40" target="OujCXUVkTaEfRvT8h6zp-37">
          <mxGeometry relative="1" as="geometry" />
        </mxCell>
        <mxCell id="OujCXUVkTaEfRvT8h6zp-40" value="Intermediario" style="shape=ext;margin=3;double=1;whiteSpace=wrap;html=1;align=center;" vertex="1" parent="1">
          <mxGeometry x="-30" y="-280" width="100" height="40" as="geometry" />
        </mxCell>
        <mxCell id="OujCXUVkTaEfRvT8h6zp-41" value="Área Producción" style="shape=ext;margin=3;double=1;whiteSpace=wrap;html=1;align=center;" vertex="1" parent="1">
          <mxGeometry x="230" y="110" width="100" height="40" as="geometry" />
        </mxCell>
        <mxCell id="OujCXUVkTaEfRvT8h6zp-47" value="" style="edgeStyle=orthogonalEdgeStyle;rounded=0;orthogonalLoop=1;jettySize=auto;html=1;" edge="1" parent="1" source="OujCXUVkTaEfRvT8h6zp-42" target="OujCXUVkTaEfRvT8h6zp-39">
          <mxGeometry relative="1" as="geometry" />
        </mxCell>
        <mxCell id="OujCXUVkTaEfRvT8h6zp-50" value="" style="edgeStyle=orthogonalEdgeStyle;rounded=0;orthogonalLoop=1;jettySize=auto;html=1;" edge="1" parent="1" source="OujCXUVkTaEfRvT8h6zp-42" target="OujCXUVkTaEfRvT8h6zp-40">
          <mxGeometry relative="1" as="geometry" />
        </mxCell>
        <mxCell id="OujCXUVkTaEfRvT8h6zp-42" value="contratar seguro" style="shape=rhombus;perimeter=rhombusPerimeter;whiteSpace=wrap;html=1;align=center;" vertex="1" parent="1">
          <mxGeometry x="-200" y="-380" width="120" height="60" as="geometry" />
        </mxCell>
        <mxCell id="OujCXUVkTaEfRvT8h6zp-58" value="" style="edgeStyle=orthogonalEdgeStyle;rounded=0;orthogonalLoop=1;jettySize=auto;html=1;" edge="1" parent="1" source="OujCXUVkTaEfRvT8h6zp-44" target="OujCXUVkTaEfRvT8h6zp-38">
          <mxGeometry relative="1" as="geometry" />
        </mxCell>
        <mxCell id="OujCXUVkTaEfRvT8h6zp-44" value="Formulario Cierre 1" style="shape=ext;margin=3;double=1;whiteSpace=wrap;html=1;align=center;" vertex="1" parent="1">
          <mxGeometry x="-190" y="-130" width="100" height="40" as="geometry" />
        </mxCell>
        <mxCell id="OujCXUVkTaEfRvT8h6zp-60" value="Área Configuración" style="shape=ext;margin=3;double=1;whiteSpace=wrap;html=1;align=center;" vertex="1" parent="1">
          <mxGeometry x="140" y="-40" width="100" height="40" as="geometry" />
        </mxCell>
        <mxCell id="OujCXUVkTaEfRvT8h6zp-61" value="Validación cierre OK" style="shape=rhombus;perimeter=rhombusPerimeter;whiteSpace=wrap;html=1;align=center;" vertex="1" parent="1">
          <mxGeometry x="250" y="-50" width="130" height="60" as="geometry" />
        </mxCell>
        <mxCell id="OujCXUVkTaEfRvT8h6zp-63" value="Muerte Acc. (A1)" style="ellipse;whiteSpace=wrap;html=1;align=center;" vertex="1" parent="1">
          <mxGeometry x="1030" y="-80" width="100" height="40" as="geometry" />
        </mxCell>
        <mxCell id="OujCXUVkTaEfRvT8h6zp-64" value="Muerte Acc. (AP3)" style="ellipse;whiteSpace=wrap;html=1;align=center;" vertex="1" parent="1">
          <mxGeometry x="540" y="310" width="100" height="40" as="geometry" />
        </mxCell>
        <mxCell id="OujCXUVkTaEfRvT8h6zp-65" value="Invalidez 2/3 (A2)" style="ellipse;whiteSpace=wrap;html=1;align=center;" vertex="1" parent="1">
          <mxGeometry x="1030" y="-40" width="100" height="40" as="geometry" />
        </mxCell>
        <mxCell id="OujCXUVkTaEfRvT8h6zp-92" value="" style="edgeStyle=orthogonalEdgeStyle;rounded=0;orthogonalLoop=1;jettySize=auto;html=1;" edge="1" parent="1" source="OujCXUVkTaEfRvT8h6zp-66" target="OujCXUVkTaEfRvT8h6zp-71">
          <mxGeometry relative="1" as="geometry" />
        </mxCell>
        <mxCell id="OujCXUVkTaEfRvT8h6zp-66" value="Invalidez 2/3 (AP1)" style="ellipse;whiteSpace=wrap;html=1;align=center;" vertex="1" parent="1">
          <mxGeometry x="540" y="170" width="100" height="40" as="geometry" />
        </mxCell>
        <mxCell id="OujCXUVkTaEfRvT8h6zp-67" value="Dental (AS2)" style="ellipse;whiteSpace=wrap;html=1;align=center;" vertex="1" parent="1">
          <mxGeometry x="690" y="-180" width="100" height="40" as="geometry" />
        </mxCell>
        <mxCell id="OujCXUVkTaEfRvT8h6zp-68" value="Catastrófico (AS1)" style="ellipse;whiteSpace=wrap;html=1;align=center;" vertex="1" parent="1">
          <mxGeometry x="690" y="-240" width="100" height="40" as="geometry" />
        </mxCell>
        <mxCell id="OujCXUVkTaEfRvT8h6zp-70" value="Desm (A3)" style="ellipse;whiteSpace=wrap;html=1;align=center;" vertex="1" parent="1">
          <mxGeometry x="1030" width="100" height="40" as="geometry" />
        </mxCell>
        <mxCell id="OujCXUVkTaEfRvT8h6zp-93" value="" style="edgeStyle=orthogonalEdgeStyle;rounded=0;orthogonalLoop=1;jettySize=auto;html=1;" edge="1" parent="1" source="OujCXUVkTaEfRvT8h6zp-71" target="OujCXUVkTaEfRvT8h6zp-64">
          <mxGeometry relative="1" as="geometry" />
        </mxCell>
        <mxCell id="OujCXUVkTaEfRvT8h6zp-71" value="Gmac&amp;nbsp;&lt;div&gt;(AP2)&lt;/div&gt;" style="ellipse;whiteSpace=wrap;html=1;align=center;" vertex="1" parent="1">
          <mxGeometry x="540" y="240" width="100" height="40" as="geometry" />
        </mxCell>
        <mxCell id="OujCXUVkTaEfRvT8h6zp-72" style="edgeStyle=orthogonalEdgeStyle;rounded=0;orthogonalLoop=1;jettySize=auto;html=1;exitX=0.5;exitY=1;exitDx=0;exitDy=0;" edge="1" parent="1" source="OujCXUVkTaEfRvT8h6zp-64" target="OujCXUVkTaEfRvT8h6zp-64">
          <mxGeometry relative="1" as="geometry" />
        </mxCell>
        <mxCell id="OujCXUVkTaEfRvT8h6zp-76" style="edgeStyle=orthogonalEdgeStyle;rounded=0;orthogonalLoop=1;jettySize=auto;html=1;entryX=0;entryY=0.35;entryDx=0;entryDy=0;entryPerimeter=0;" edge="1" parent="1" source="OujCXUVkTaEfRvT8h6zp-5" target="OujCXUVkTaEfRvT8h6zp-63">
          <mxGeometry relative="1" as="geometry" />
        </mxCell>
        <mxCell id="OujCXUVkTaEfRvT8h6zp-82" value="Configuración nuevo negocio" style="shape=ext;margin=3;double=1;whiteSpace=wrap;html=1;align=center;" vertex="1" parent="1">
          <mxGeometry x="390" y="-40" width="100" height="40" as="geometry" />
        </mxCell>
        <mxCell id="OujCXUVkTaEfRvT8h6zp-97" style="edgeStyle=orthogonalEdgeStyle;rounded=0;orthogonalLoop=1;jettySize=auto;html=1;" edge="1" parent="1" source="OujCXUVkTaEfRvT8h6zp-83" target="OujCXUVkTaEfRvT8h6zp-84">
          <mxGeometry relative="1" as="geometry" />
        </mxCell>
        <mxCell id="OujCXUVkTaEfRvT8h6zp-83" value="Coberturas contratadas" style="shape=ext;margin=3;double=1;whiteSpace=wrap;html=1;align=center;" vertex="1" parent="1">
          <mxGeometry x="540" y="20" width="100" height="40" as="geometry" />
        </mxCell>
        <mxCell id="OujCXUVkTaEfRvT8h6zp-88" value="" style="edgeStyle=orthogonalEdgeStyle;rounded=0;orthogonalLoop=1;jettySize=auto;html=1;" edge="1" parent="1" source="OujCXUVkTaEfRvT8h6zp-84" target="OujCXUVkTaEfRvT8h6zp-5">
          <mxGeometry relative="1" as="geometry" />
        </mxCell>
        <mxCell id="OujCXUVkTaEfRvT8h6zp-98" style="edgeStyle=orthogonalEdgeStyle;rounded=0;orthogonalLoop=1;jettySize=auto;html=1;entryX=0.5;entryY=1;entryDx=0;entryDy=0;" edge="1" parent="1" source="OujCXUVkTaEfRvT8h6zp-84" target="OujCXUVkTaEfRvT8h6zp-7">
          <mxGeometry relative="1" as="geometry" />
        </mxCell>
        <mxCell id="OujCXUVkTaEfRvT8h6zp-99" style="edgeStyle=orthogonalEdgeStyle;rounded=0;orthogonalLoop=1;jettySize=auto;html=1;entryX=0.5;entryY=1;entryDx=0;entryDy=0;" edge="1" parent="1" source="OujCXUVkTaEfRvT8h6zp-84" target="OujCXUVkTaEfRvT8h6zp-4">
          <mxGeometry relative="1" as="geometry" />
        </mxCell>
        <mxCell id="OujCXUVkTaEfRvT8h6zp-100" style="edgeStyle=orthogonalEdgeStyle;rounded=0;orthogonalLoop=1;jettySize=auto;html=1;entryX=0.5;entryY=1;entryDx=0;entryDy=0;" edge="1" parent="1" source="OujCXUVkTaEfRvT8h6zp-84" target="OujCXUVkTaEfRvT8h6zp-6">
          <mxGeometry relative="1" as="geometry" />
        </mxCell>
        <mxCell id="OujCXUVkTaEfRvT8h6zp-84" value="Contrata&amp;nbsp;" style="shape=rhombus;perimeter=rhombusPerimeter;whiteSpace=wrap;html=1;align=center;" vertex="1" parent="1">
          <mxGeometry x="690" y="-90" width="120" height="60" as="geometry" />
        </mxCell>
      </root>
    </mxGraphModel>
  </diagram>
</mxfile>
